<svg xmlns="http://www.w3.org/2000/svg" viewBox="0 0 64 64"><defs><linearGradient id="bg" x1="8" x2="56" y1="8" y2="56" gradientUnits="userSpaceOnUse"><stop stop-color="#F8FCFD"/><stop offset=".58" stop-color="#DDF2F8"/><stop offset="1" stop-color="#9ED8E8"/></linearGradient></defs><rect width="64" height="64" rx="14" fill="url(#bg)"/><circle cx="32" cy="32" r="27" fill="#F8FCFD" opacity=".82"/><g stroke="#2F8797" stroke-width="4.5" stroke-linecap="round"><line x1="32" y1="5" x2="32" y2="19"/><line x1="32" y1="5" x2="32" y2="19" transform="rotate(15 32 32)"/><line x1="32" y1="5" x2="32" y2="19" transform="rotate(30 32 32)"/><line x1="32" y1="5" x2="32" y2="19" transform="rotate(45 32 32)"/><line x1="32" y1="5" x2="32" y2="19" transform="rotate(60 32 32)"/><line x1="32" y1="5" x2="32" y2="19" transform="rotate(75 32 32)"/><line x1="32" y1="5" x2="32" y2="19" transform="rotate(90 32 32)"/><line x1="32" y1="5" x2="32" y2="19" transform="rotate(105 32 32)"/><line x1="32" y1="5" x2="32" y2="19" transform="rotate(120 32 32)"/><line x1="32" y1="5" x2="32" y2="19" transform="rotate(135 32 32)"/><line x1="32" y1="5" x2="32" y2="19" transform="rotate(150 32 32)"/><line x1="32" y1="5" x2="32" y2="19" transform="rotate(165 32 32)"/><line x1="32" y1="5" x2="32" y2="19" transform="rotate(180 32 32)"/><line x1="32" y1="5" x2="32" y2="19" transform="rotate(195 32 32)"/><line x1="32" y1="5" x2="32" y2="19" transform="rotate(210 32 32)"/><line x1="32" y1="5" x2="32" y2="19" transform="rotate(225 32 32)"/><line x1="32" y1="5" x2="32" y2="19" transform="rotate(240 32 32)"/><line x1="32" y1="5" x2="32" y2="19" transform="rotate(255 32 32)"/><line x1="32" y1="5" x2="32" y2="19" transform="rotate(270 32 32)"/><line x1="32" y1="5" x2="32" y2="19" transform="rotate(285 32 32)"/><line x1="32" y1="5" x2="32" y2="19" transform="rotate(300 32 32)"/><line x1="32" y1="5" x2="32" y2="19" transform="rotate(315 32 32)"/><line x1="32" y1="5" x2="32" y2="19" transform="rotate(330 32 32)"/><line x1="32" y1="5" x2="32" y2="19" transform="rotate(345 32 32)"/></g><circle cx="32" cy="32" r="13" fill="#F8FCFD"/><circle cx="32" cy="32" r="7" fill="#202322"/></svg>