<svg xmlns="http://www.w3.org/2000/svg" viewBox="0 0 1200 630" width="1200" height="630" role="img" aria-label="Euphemius Partners social preview"><defs><linearGradient id="bg" x1="0" x2="1200" y1="0" y2="630" gradientUnits="userSpaceOnUse"><stop stop-color="#F9FCFD"/><stop offset=".5" stop-color="#EDF7FB"/><stop offset="1" stop-color="#D8EEF6"/></linearGradient><pattern id="grid" width="32" height="32" patternUnits="userSpaceOnUse"><path d="M32 0H0V32" fill="none" stroke="#202322" stroke-opacity=".055"/></pattern><pattern id="dots" width="16" height="16" patternUnits="userSpaceOnUse"><circle cx="4" cy="4" r="1.45" fill="#102D39" opacity=".62"/><circle cx="12" cy="12" r="1.2" fill="#2F8797" opacity=".42"/></pattern><radialGradient id="glow" cx="0" cy="0" r="1" gradientUnits="userSpaceOnUse" gradientTransform="translate(880 285) scale(360)"><stop stop-color="#A9DDEA" stop-opacity=".78"/><stop offset="1" stop-color="#A9DDEA" stop-opacity="0"/></radialGradient><clipPath id="coin"><circle cx="895" cy="285" r="220"/></clipPath></defs><rect width="1200" height="630" fill="url(#bg)"/><rect width="1200" height="630" fill="url(#grid)"/><circle cx="895" cy="285" r="320" fill="url(#glow)"/><g clip-path="url(#coin)"><rect x="650" y="40" width="520" height="500" fill="url(#dots)"/><path d="M684 250C750 226 826 220 904 232C985 244 1044 278 1104 340" fill="none" stroke="#102D39" stroke-opacity=".22" stroke-width="2"/><path d="M706 341C772 309 848 292 930 292C995 292 1042 304 1108 332" fill="none" stroke="#102D39" stroke-opacity=".18" stroke-width="1.5"/><path d="M806 90C850 172 874 244 881 504" fill="none" stroke="#102D39" stroke-opacity=".14" stroke-width="1.3"/><path d="M964 88C930 174 918 256 930 504" fill="none" stroke="#102D39" stroke-opacity=".12" stroke-width="1.3"/></g><circle cx="895" cy="285" r="220" fill="none" stroke="#102D39" stroke-opacity=".38" stroke-width="2"/><circle cx="895" cy="285" r="206" fill="none" stroke="#102D39" stroke-opacity=".18" stroke-width="1.5" stroke-dasharray="2 8"/><ellipse cx="895" cy="285" rx="300" ry="62" fill="none" stroke="#1D6B8A" stroke-opacity=".22" stroke-width="1.5"/><ellipse cx="895" cy="285" rx="252" ry="105" fill="none" stroke="#1D6B8A" stroke-opacity=".14" stroke-width="1.2" transform="rotate(-8 895 285)"/><text x="895" y="332" text-anchor="middle" font-family="Arial,sans-serif" font-size="142" font-weight="700" fill="#102D39" opacity=".08">$</text><g transform="translate(78 72)"><g stroke="#2F8797" stroke-width="5" stroke-linecap="round"><line x1="31" y1="2" x2="31" y2="15"/><line x1="31" y1="2" x2="31" y2="15" transform="rotate(30 31 31)"/><line x1="31" y1="2" x2="31" y2="15" transform="rotate(60 31 31)"/><line x1="31" y1="2" x2="31" y2="15" transform="rotate(90 31 31)"/><line x1="31" y1="2" x2="31" y2="15" transform="rotate(120 31 31)"/><line x1="31" y1="2" x2="31" y2="15" transform="rotate(150 31 31)"/><line x1="31" y1="2" x2="31" y2="15" transform="rotate(180 31 31)"/><line x1="31" y1="2" x2="31" y2="15" transform="rotate(210 31 31)"/><line x1="31" y1="2" x2="31" y2="15" transform="rotate(240 31 31)"/><line x1="31" y1="2" x2="31" y2="15" transform="rotate(270 31 31)"/><line x1="31" y1="2" x2="31" y2="15" transform="rotate(300 31 31)"/><line x1="31" y1="2" x2="31" y2="15" transform="rotate(330 31 31)"/></g><circle cx="31" cy="31" r="11" fill="#F8FCFD"/><circle cx="31" cy="31" r="5" fill="#202322"/><text x="86" y="43" font-family="Arial,sans-serif" font-size="42" font-weight="800" fill="#202322">Euphemius Partners</text></g><text x="76" y="220" font-family="Arial,sans-serif" font-size="22" font-weight="700" fill="#1D6B8A">Modern settlement infrastructure</text><text x="76" y="314" font-family="Arial,sans-serif" font-size="76" font-weight="800" fill="#202322">Move money at</text><text x="76" y="402" font-family="Arial,sans-serif" font-size="76" font-weight="800" fill="#202322">software speed.</text><text x="80" y="468" font-family="Arial,sans-serif" font-size="28" font-weight="600" fill="#202322" opacity=".68">Stablecoin rails for global payment routes.</text><g transform="translate(80 536)"><rect width="396" height="48" rx="24" fill="#FFFFFF" fill-opacity=".58" stroke="#1D6B8A" stroke-opacity=".22"/><circle cx="27" cy="24" r="13" fill="none" stroke="#1D6B8A" stroke-opacity=".72"/><text x="53" y="31" font-family="Arial,sans-serif" font-size="19" font-weight="700" fill="#202322">Clearer routes. Faster proof.</text></g></svg>